<svg xmlns="http://www.w3.org/2000/svg" data-name="Layer 1" width="100" height="100"><path d="M0 53.52v-7c.15-1.12.28-2.25.44-3.37a49.38 49.38 0 0112.09-26.2A49.06 49.06 0 0141.39.77C43.21.45 45 .25 46.88 0h6.25a6.61 6.61 0 00.87.18 47.68 47.68 0 0122.17 7.25A49.4 49.4 0 0199.23 41.3c.32 1.72.52 3.46.77 5.19v7c-.15 1.12-.27 2.25-.44 3.37a49.46 49.46 0 01-13.21 27.41 49 49 0 01-29 15.16c-1.41.21-2.82.38-4.23.57h-6.24c-1.19-.14-2.38-.27-3.56-.43A50.18 50.18 0 01.78 58.8C.46 57 .26 55.28 0 53.52zm46.81-5.89V28.24l-16.7-1a70.24 70.24 0 00-3.47 20.35h20.17zm23.07-20.36l-16.71 1V47.6h20.19a70.61 70.61 0 00-3.48-20.33zM30.11 72.72l16.71-1V54H26.7a69.71 69.71 0 003.41 18.72zM73.2 54h-20v17.75l16.62 1C71.46 69 73.53 57.54 73.2 54zM23.64 26.41c-3-.57-5.91-1.14-8.85-1.64a1.23 1.23 0 00-.85.57 42.48 42.48 0 00-6.87 16.39c-.37 1.92-.53 3.88-.79 5.85h14c.82-10.92.82-10.92 3.36-21.17zm56 21.19h14c-.25-1.9-.43-3.73-.75-5.54a43.19 43.19 0 00-7-16.87.9.9 0 00-1.13-.41c-1 .24-2 .42-3.05.61l-5.52 1a80.88 80.88 0 013.5 21.21zm-56 26a80 80 0 01-3.33-19.66h-14c.29 1.75.51 3.45.85 5.12a43.26 43.26 0 006.7 15.64 1 1 0 001.19.51c1-.25 2-.42 3-.6zm52.62 0c3 .58 6 1.15 8.9 1.65a1.23 1.23 0 00.84-.57 40.83 40.83 0 006-12.9c.67-2.55 1.08-5.16 1.63-7.82H79.62a79.32 79.32 0 01-3.31 19.61zm-43.6 5.21c2.33 6.54 10 14.25 14.17 14.34V78.08zm20.52-56.9l14.16-.73C65.06 14.7 57.3 6.91 53.17 6.85v15.06zM46.83 6.63c-7.21 2.48-11 8.12-14.32 14.54l14.32.74zm20.66 72.19l-14.33-.73v15.28c7.21-2.45 10.96-8.11 14.33-14.55zM81 19.2a43.84 43.84 0 00-12.52-8.79c1.1 1.75 2.13 3.28 3 4.88.87 1.6 1.73 3.32 2.61 5zM31.43 89.48c-1-1.65-2.08-3.18-3-4.78-.92-1.6-1.72-3.32-2.6-5l-6.74 1.13c2.28 2.73 9.01 7.47 12.34 8.65zm-.16-79A44.11 44.11 0 0019 19.2l6.71 1.11zm37.31 78.89A39.83 39.83 0 0080.9 80.9a3.91 3.91 0 00-.62-.23c-1.73-.29-3.47-.49-5.18-.87a1.13 1.13 0 00-1.49.83c-.94 1.92-2 3.81-3 5.67-.61 1.07-1.35 2.05-2.03 3.07z" data-name="Go to Web"/></svg>